<?xml version="1.0" encoding="UTF-8" standalone="no"?>
<!DOCTYPE svg PUBLIC "-//W3C//DTD SVG 1.1//EN" "http://www.w3.org/Graphics/SVG/1.1/DTD/svg11.dtd">
<svg width="100%" height="100%" viewBox="0 0 960 481" version="1.1" xmlns="http://www.w3.org/2000/svg" xmlns:xlink="http://www.w3.org/1999/xlink" xml:space="preserve" xmlns:serif="http://www.serif.com/" style="fill-rule:evenodd;clip-rule:evenodd;stroke-linejoin:round;stroke-miterlimit:2;">
    <g transform="matrix(1,0,0,1,180.626,0)">
        <g>
            <g transform="matrix(1,0,0,1,103.473,1.89034)">
                <path d="M240,111.361C238.939,111.361 238.08,110.501 238.08,109.441C238.08,108.381 238.939,107.521 240,107.521C255.239,107.521 269.891,110.101 283.541,114.849C297.685,119.769 310.736,127.017 322.235,136.132C323.063,136.79 323.2,137.996 322.542,138.824C321.883,139.653 320.678,139.79 319.849,139.132C308.68,130.277 296.008,123.239 282.281,118.464C269.051,113.862 254.824,111.361 240,111.361Z" style="fill:rgb(83,106,222);fill-rule:nonzero;"/>
            </g>
            <g transform="matrix(1,0,0,1,103.473,1.89034)">
                <path d="M140.038,159.015C139.372,159.835 138.166,159.959 137.346,159.292C136.526,158.625 136.402,157.42 137.069,156.6C143.89,148.191 151.715,140.638 160.358,134.127C168.922,127.675 178.307,122.233 188.334,117.982C189.307,117.572 190.428,118.029 190.838,119.002C191.248,119.975 190.791,121.097 189.818,121.507C180.11,125.623 171.001,130.908 162.668,137.186C154.259,143.521 146.655,150.858 140.038,159.015Z" style="fill:rgb(83,106,222);fill-rule:nonzero;"/>
            </g>
            <g transform="matrix(1,0,0,1,103.473,1.89034)">
                <path d="M111.36,240C111.36,241.061 110.5,241.92 109.44,241.92C108.38,241.92 107.52,241.061 107.52,240C107.52,227.789 109.179,215.948 112.284,204.692C115.487,193.08 120.231,182.108 126.281,172.01C126.824,171.103 128,170.807 128.906,171.35C129.813,171.892 130.109,173.068 129.566,173.975C123.691,183.781 119.083,194.436 115.973,205.711C112.967,216.612 111.36,228.111 111.36,240Z" style="fill:rgb(83,106,222);fill-rule:nonzero;"/>
            </g>
            <g transform="matrix(1,0,0,1,103.473,1.89034)">
                <path d="M116.452,275.985C116.746,276.999 116.162,278.06 115.147,278.354C114.133,278.648 113.071,278.064 112.777,277.049C111.794,273.667 110.942,270.229 110.227,266.745C109.511,263.252 108.936,259.753 108.508,256.257C108.38,255.205 109.129,254.247 110.181,254.119C111.233,253.991 112.19,254.74 112.318,255.792C112.744,259.277 113.299,262.675 113.977,265.98C114.672,269.368 115.499,272.705 116.452,275.985Z" style="fill:rgb(83,106,222);fill-rule:nonzero;"/>
            </g>
            <g transform="matrix(1,0,0,1,103.473,1.89034)">
                <path d="M179.017,353.3C179.948,353.801 180.298,354.963 179.797,355.895C179.296,356.827 178.134,357.176 177.202,356.675C169.109,352.31 161.521,347.127 154.55,341.238C147.556,335.328 141.177,328.699 135.526,321.461C134.876,320.629 135.024,319.427 135.856,318.776C136.689,318.126 137.891,318.274 138.541,319.106C144.019,326.122 150.217,332.561 157.025,338.313C163.792,344.03 171.159,349.062 179.017,353.3Z" style="fill:rgb(83,106,222);fill-rule:nonzero;"/>
            </g>
            <g transform="matrix(1,0,0,1,103.473,1.89034)">
                <path d="M251.923,368.103C252.975,368.007 253.905,368.783 254,369.835C254.095,370.887 253.32,371.817 252.268,371.912C250.218,372.1 248.176,372.242 246.144,372.335C244.028,372.431 241.978,372.48 240,372.48C230.953,372.48 222.093,371.565 213.51,369.823C204.705,368.036 196.228,365.381 188.173,361.954C187.2,361.54 186.747,360.415 187.161,359.441C187.575,358.468 188.7,358.015 189.673,358.429C197.513,361.765 205.74,364.344 214.26,366.073C222.552,367.757 231.16,368.64 240,368.64C242.084,368.64 244.077,368.596 245.979,368.509C247.993,368.418 249.975,368.281 251.923,368.103Z" style="fill:rgb(83,106,222);fill-rule:nonzero;"/>
            </g>
            <g transform="matrix(1,0,0,1,103.473,1.89034)">
                <path d="M362.789,278.482C363.103,277.471 364.178,276.907 365.189,277.222C366.199,277.536 366.763,278.611 366.449,279.622C364.25,286.647 361.479,293.424 358.191,299.898C354.87,306.439 351.007,312.683 346.662,318.572C346.037,319.421 344.841,319.602 343.992,318.977C343.143,318.352 342.961,317.156 343.587,316.307C347.782,310.621 351.529,304.558 354.771,298.173C357.96,291.893 360.651,285.311 362.789,278.482Z" style="fill:rgb(83,106,222);fill-rule:nonzero;"/>
            </g>
            <g transform="matrix(1,0,0,1,103.473,1.89034)">
                <path d="M145.104,131.661C144.309,132.357 143.099,132.277 142.404,131.481C141.708,130.686 141.789,129.477 142.584,128.781C145.01,126.662 147.503,124.621 150.059,122.665C152.59,120.729 155.215,118.851 157.935,117.037C172.093,107.588 187.291,100.904 202.888,96.86C219.07,92.664 235.671,91.305 251.98,92.643C253.036,92.725 253.825,93.649 253.742,94.705C253.66,95.761 252.736,96.55 251.68,96.468C235.767,95.163 219.591,96.482 203.848,100.565C188.657,104.504 173.855,111.013 160.064,120.217C157.443,121.966 154.882,123.799 152.384,125.71C149.861,127.64 147.434,129.626 145.104,131.661Z" style="fill:rgb(83,106,222);fill-rule:nonzero;"/>
            </g>
            <g transform="matrix(1,0,0,1,103.473,1.89034)">
                <path d="M113.103,308.097C113.604,309.029 113.254,310.191 112.323,310.692C111.391,311.193 110.229,310.844 109.728,309.912C104.464,300.132 100.409,289.963 97.526,279.595C94.572,268.975 92.851,258.151 92.324,247.329C92.275,246.273 93.091,245.376 94.147,245.327C95.203,245.277 96.1,246.093 96.149,247.149C96.663,257.69 98.338,268.231 101.215,278.575C104.019,288.658 107.97,298.56 113.103,308.097Z" style="fill:rgb(83,106,222);fill-rule:nonzero;"/>
            </g>
            <g transform="matrix(1,0,0,1,103.473,1.89034)">
                <path d="M130.927,334.048C131.614,334.851 131.52,336.06 130.717,336.748C129.913,337.435 128.704,337.341 128.017,336.538C126.086,334.292 124.184,331.938 122.317,329.477C120.476,327.052 118.714,324.58 117.036,322.065C116.448,321.188 116.683,319.998 117.561,319.411C118.439,318.823 119.628,319.058 120.216,319.936C121.887,322.439 123.603,324.851 125.362,327.167C127.128,329.495 128.985,331.789 130.927,334.048Z" style="fill:rgb(83,106,222);fill-rule:nonzero;"/>
            </g>
            <g transform="matrix(1,0,0,1,103.473,1.89034)">
                <path d="M330.701,351.864C331.525,351.201 332.731,351.332 333.394,352.156C334.056,352.98 333.925,354.186 333.101,354.849C331.332,356.28 329.524,357.675 327.682,359.03C325.871,360.362 323.998,361.674 322.064,362.964C318.264,365.5 314.385,367.84 310.44,369.983C306.409,372.173 302.35,374.144 298.274,375.897C297.301,376.315 296.172,375.865 295.754,374.892C295.336,373.919 295.786,372.79 296.759,372.372C300.798,370.635 304.753,368.719 308.61,366.624C312.446,364.539 316.225,362.26 319.935,359.784C321.778,358.554 323.607,357.271 325.417,355.94C327.221,354.613 328.983,353.254 330.701,351.864Z" style="fill:rgb(83,106,222);fill-rule:nonzero;"/>
            </g>
            <g transform="matrix(1,0,0,1,103.473,1.89034)">
                <path d="M383.859,246.681C383.909,245.625 384.805,244.809 385.862,244.859C386.918,244.908 387.734,245.805 387.684,246.861C387.606,248.521 387.507,250.1 387.388,251.598C387.266,253.135 387.115,254.71 386.936,256.321C385.865,265.92 383.863,275.391 380.96,284.588C378.078,293.722 374.294,302.612 369.639,311.114C369.133,312.042 367.971,312.384 367.044,311.879C366.116,311.374 365.774,310.212 366.279,309.284C370.796,301.034 374.48,292.369 377.3,283.433C380.133,274.457 382.085,265.232 383.126,255.901C383.292,254.41 383.438,252.875 383.563,251.299C383.691,249.683 383.79,248.142 383.859,246.681Z" style="fill:rgb(83,106,222);fill-rule:nonzero;"/>
            </g>
            <g transform="matrix(1,0,0,1,103.473,1.89034)">
                <path d="M375.695,191.699C375.339,190.701 375.859,189.603 376.857,189.247C377.855,188.891 378.953,189.411 379.309,190.409C379.762,191.678 380.215,193.01 380.668,194.404C381.096,195.724 381.512,197.073 381.916,198.45C383.819,204.944 385.258,211.509 386.24,218.096C387.231,224.742 387.761,231.452 387.838,238.176C387.846,239.233 386.996,240.096 385.94,240.104C384.884,240.112 384.021,239.263 384.013,238.206C383.938,231.715 383.419,225.18 382.445,218.651C381.486,212.219 380.087,205.829 378.241,199.53C377.862,198.238 377.456,196.924 377.023,195.589C376.62,194.347 376.177,193.05 375.695,191.699Z" style="fill:rgb(83,106,222);fill-rule:nonzero;"/>
            </g>
            <g transform="matrix(1,0,0,1,103.473,1.89034)">
                <path d="M359.783,160.065C359.196,159.188 359.431,157.998 360.308,157.411C361.186,156.823 362.375,157.058 362.963,157.936C366.392,163.074 369.454,168.341 372.153,173.705C374.915,179.194 377.298,184.773 379.309,190.409C379.665,191.407 379.145,192.505 378.147,192.861C377.149,193.217 376.051,192.697 375.695,191.699C373.722,186.171 371.403,180.737 368.733,175.43C366.096,170.188 363.114,165.056 359.783,160.065Z" style="fill:rgb(83,106,222);fill-rule:nonzero;"/>
            </g>
            <g transform="matrix(1,0,0,1,103.473,1.89034)">
                <path d="M179.361,149.132C178.483,149.72 177.294,149.485 176.706,148.607C176.119,147.729 176.353,146.54 177.231,145.952C188.061,138.725 199.685,133.612 211.615,130.519C223.994,127.309 236.691,126.269 249.162,127.292C250.218,127.375 251.007,128.298 250.924,129.355C250.841,130.411 249.918,131.2 248.862,131.117C236.787,130.127 224.515,131.128 212.575,134.224C201.051,137.212 189.823,142.15 179.361,149.132Z" style="fill:rgb(83,106,222);fill-rule:nonzero;"/>
            </g>
            <g transform="matrix(1,0,0,1,103.473,1.89034)">
                <path d="M330.868,179.362C330.28,178.484 330.515,177.295 331.393,176.707C332.271,176.119 333.46,176.354 334.048,177.232C336.672,181.164 339.014,185.193 341.078,189.293C343.192,193.496 345.015,197.763 346.552,202.07C346.908,203.068 346.387,204.166 345.389,204.522C344.391,204.878 343.293,204.358 342.937,203.36C341.44,199.162 339.681,195.039 337.658,191.019C335.656,187.04 333.393,183.146 330.868,179.362Z" style="fill:rgb(83,106,222);fill-rule:nonzero;"/>
            </g>
            <g transform="matrix(1,0,0,1,103.473,1.89034)">
                <path d="M349.132,245.068C349.181,244.012 350.078,243.196 351.134,243.246C352.19,243.295 353.006,244.192 352.957,245.248C352.896,246.535 352.821,247.742 352.731,248.869C352.639,250.035 352.523,251.241 352.385,252.483C352.269,253.535 351.322,254.293 350.27,254.177C349.218,254.061 348.459,253.114 348.575,252.062C348.7,250.94 348.811,249.775 348.906,248.569C349.005,247.325 349.08,246.157 349.132,245.068Z" style="fill:rgb(83,106,222);fill-rule:nonzero;"/>
            </g>
            <g transform="matrix(1,0,0,1,103.473,1.89034)">
                <path d="M335.795,292.561C336.3,291.633 337.463,291.291 338.39,291.796C339.318,292.301 339.66,293.463 339.155,294.391C338.689,295.241 338.248,296.026 337.834,296.741C337.389,297.509 336.933,298.277 336.466,299.04C333.834,303.346 330.895,307.502 327.656,311.471C324.464,315.383 320.99,319.105 317.241,322.602C316.467,323.323 315.255,323.279 314.534,322.505C313.813,321.73 313.857,320.518 314.631,319.797C318.263,316.41 321.617,312.819 324.687,309.056C327.809,305.23 330.648,301.215 333.196,297.045C333.645,296.312 334.086,295.569 334.52,294.821C334.99,294.008 335.415,293.255 335.795,292.561Z" style="fill:rgb(83,106,222);fill-rule:nonzero;"/>
            </g>
            <g transform="matrix(1,0,0,1,103.473,1.89034)">
                <path d="M308.807,324.859C309.631,324.197 310.837,324.328 311.5,325.152C312.162,325.976 312.031,327.181 311.207,327.844C309.853,328.939 308.471,330.006 307.062,331.042C305.683,332.056 304.251,333.06 302.768,334.049C301.89,334.637 300.701,334.402 300.113,333.524C299.525,332.646 299.76,331.457 300.638,330.869C302.032,329.939 303.419,328.966 304.798,327.952C306.167,326.944 307.505,325.912 308.807,324.859Z" style="fill:rgb(83,106,222);fill-rule:nonzero;"/>
            </g>
            <g transform="matrix(1,0,0,1,103.473,1.89034)">
                <path d="M250.341,348.776C251.393,348.681 252.324,349.456 252.419,350.508C252.514,351.56 251.739,352.491 250.687,352.586C242.866,353.322 235.029,353.238 227.307,352.362C219.522,351.479 211.849,349.795 204.424,347.34C203.418,347.008 202.87,345.924 203.202,344.917C203.533,343.911 204.618,343.364 205.624,343.695C212.815,346.073 220.226,347.701 227.727,348.552C235.22,349.403 242.801,349.486 250.341,348.776Z" style="fill:rgb(83,106,222);fill-rule:nonzero;"/>
            </g>
            <g transform="matrix(1,0,0,1,103.473,1.89034)">
                <path d="M169.693,323.655C170.501,324.335 170.605,325.54 169.926,326.348C169.247,327.155 168.041,327.259 167.234,326.58C164.912,324.627 162.676,322.59 160.535,320.472C158.397,318.357 156.332,316.144 154.348,313.836C153.66,313.033 153.755,311.824 154.558,311.136C155.361,310.449 156.57,310.543 157.258,311.346C159.177,313.578 161.172,315.716 163.235,317.757C165.339,319.839 167.495,321.806 169.693,323.655Z" style="fill:rgb(83,106,222);fill-rule:nonzero;"/>
            </g>
            <g transform="matrix(1,0,0,1,103.473,1.89034)">
                <path d="M130.874,245.425C130.924,246.481 130.108,247.377 129.052,247.427C127.996,247.477 127.099,246.66 127.049,245.604C126.92,242.947 126.886,240.272 126.945,237.587C127.005,234.905 127.16,232.228 127.409,229.565C127.504,228.513 128.434,227.738 129.486,227.833C130.538,227.928 131.314,228.858 131.218,229.91C130.978,232.487 130.828,235.073 130.77,237.662C130.713,240.23 130.748,242.82 130.874,245.425Z" style="fill:rgb(83,106,222);fill-rule:nonzero;"/>
            </g>
            <g transform="matrix(1,0,0,1,243.702,-161.021)">
                <path d="M154.803,242.526L160.166,241.236L161.754,247.836L168.354,246.248L169.645,251.611L163.044,253.199L164.632,259.799L159.269,261.09L157.681,254.489L151.081,256.077L149.791,250.714L156.391,249.126L154.803,242.526Z" style="fill:rgb(83,106,222);"/>
            </g>
            <g transform="matrix(1,0,0,1,103.473,1.89034)">
                <path d="M324.841,380.331L330.204,379.041L331.792,385.641L338.393,384.054L339.683,389.417L333.082,391.005L334.67,397.605L329.307,398.895L327.719,392.295L321.119,393.882L319.829,388.519L326.429,386.932L324.841,380.331Z" style="fill:rgb(83,106,222);"/>
            </g>
            <g transform="matrix(1,0,0,1,-173.322,-61.4219)">
                <path d="M321.791,238.128L316.439,236.79L314.793,243.376L308.206,241.73L306.869,247.081L313.455,248.728L311.808,255.314L317.16,256.651L318.806,250.065L325.392,251.712L326.73,246.361L320.144,244.714L321.791,238.128Z" style="fill:rgb(83,106,222);"/>
            </g>
            <g transform="matrix(1,0,0,1,-89.7082,-26.3647)">
                <path d="M214.921,147.834L214.893,160.602L226.184,165.61L213.415,165.582L208.408,176.872L208.435,164.104L197.145,159.097L209.913,159.124L214.921,147.834Z" style="fill:rgb(83,106,222);"/>
            </g>
            <g transform="matrix(1,0,0,1,103.473,1.89034)">
                <path d="M370.458,117.748L370.475,125.564L363.564,128.629L371.38,128.612L374.445,135.523L374.428,127.707L381.34,124.642L373.524,124.659L370.458,117.748Z" style="fill:rgb(83,106,222);"/>
            </g>
            <g transform="matrix(1,0,0,1,-135.732,14.9742)">
                <path d="M259.948,304.73L269.92,312.704L280.87,306.99L272.896,316.962L278.61,327.912L268.638,319.938L257.688,325.652L265.662,315.68L259.948,304.73Z" style="fill:rgb(83,106,222);"/>
            </g>
            <g transform="matrix(1,0,0,1,103.473,1.89034)">
                <path d="M209.519,324C210.251,324 210.911,323.706 211.386,323.231L211.386,323.227C211.864,322.75 212.159,322.09 212.159,321.36C212.159,320.631 211.864,319.971 211.386,319.494C210.909,319.016 210.249,318.721 209.519,318.721C208.79,318.721 208.13,319.016 207.653,319.494L207.649,319.494C207.174,319.969 206.88,320.629 206.88,321.36C206.88,322.092 207.174,322.752 207.649,323.227L207.653,323.231C208.128,323.706 208.788,324 209.519,324ZM212.742,324.583C211.914,325.41 210.775,325.921 209.519,325.921C208.265,325.921 207.126,325.41 206.299,324.585L206.295,324.581C205.47,323.754 204.959,322.615 204.959,321.36C204.959,320.105 205.47,318.966 206.297,318.138C207.12,317.311 208.261,316.8 209.519,316.8C210.778,316.8 211.918,317.311 212.744,318.136C213.569,318.962 214.08,320.102 214.08,321.36C214.08,322.619 213.569,323.759 212.742,324.583Z" style="fill:rgb(83,106,222);fill-rule:nonzero;"/>
            </g>
            <g transform="matrix(1,0,0,1,-6.89548,222.175)">
                <path d="M260.16,152.16C261.613,152.16 262.932,152.752 263.889,153.707L263.893,153.711C264.848,154.668 265.44,155.987 265.44,157.441C265.44,158.898 264.848,160.218 263.893,161.174C262.934,162.129 261.614,162.721 260.16,162.721C258.702,162.721 257.382,162.129 256.426,161.174C255.471,160.218 254.879,158.898 254.879,157.441C254.879,155.986 255.471,154.666 256.428,153.709C257.382,152.752 258.702,152.16 260.16,152.16ZM262.536,155.061C261.93,154.456 261.09,154.081 260.16,154.081C259.231,154.081 258.391,154.457 257.784,155.065L257.78,155.065C257.175,155.67 256.8,156.51 256.8,157.441C256.8,158.369 257.176,159.209 257.784,159.817C258.391,160.424 259.231,160.8 260.16,160.8C261.09,160.8 261.93,160.425 262.536,159.82L262.536,159.817C263.143,159.209 263.519,158.369 263.519,157.441C263.519,156.51 263.144,155.67 262.539,155.065L262.536,155.061Z" style="fill:rgb(83,106,222);fill-rule:nonzero;"/>
            </g>
            <g transform="matrix(1,0,0,1,-61.1137,-282.23)">
                <path d="M219.802,387.974C221.255,387.974 222.575,388.566 223.532,389.521L223.535,389.525C224.491,390.482 225.082,391.801 225.082,393.254C225.082,394.712 224.491,396.032 223.535,396.988C222.576,397.943 221.257,398.535 219.802,398.535C218.345,398.535 217.024,397.943 216.069,396.988C215.113,396.032 214.522,394.712 214.522,393.254C214.522,391.8 215.114,390.48 216.071,389.523C217.024,388.566 218.345,387.974 219.802,387.974ZM222.178,390.875C221.573,390.27 220.733,389.895 219.802,389.895C218.874,389.895 218.034,390.271 217.426,390.878L217.422,390.878C216.817,391.484 216.442,392.324 216.442,393.254C216.442,394.183 216.819,395.023 217.426,395.63C218.034,396.238 218.874,396.614 219.802,396.614C220.733,396.614 221.573,396.239 222.178,395.634L222.178,395.63C222.786,395.023 223.162,394.183 223.162,393.254C223.162,392.324 222.787,391.484 222.182,390.878L222.178,390.875Z" style="fill:rgb(83,106,222);fill-rule:nonzero;"/>
            </g>
            <g transform="matrix(1,0,0,1,103.473,1.89034)">
                <path d="M149.455,79.032C152.067,79.032 154.438,80.095 156.158,81.812L156.164,81.819C157.881,83.539 158.944,85.909 158.944,88.521C158.944,91.141 157.881,93.513 156.164,95.23C154.441,96.947 152.069,98.01 149.455,98.01C146.835,98.01 144.463,96.948 142.746,95.23C141.029,93.513 139.966,91.141 139.966,88.521C139.966,85.907 141.03,83.536 142.749,81.816C144.463,80.095 146.835,79.032 149.455,79.032ZM153.725,84.245C152.637,83.157 151.127,82.483 149.455,82.483C147.787,82.483 146.277,83.16 145.185,84.251L145.178,84.251C144.091,85.339 143.417,86.849 143.417,88.521C143.417,90.189 144.093,91.699 145.185,92.791C146.277,93.883 147.787,94.559 149.455,94.559C151.127,94.559 152.637,93.886 153.725,92.798L153.725,92.791C154.817,91.699 155.493,90.189 155.493,88.521C155.493,86.849 154.819,85.339 153.732,84.251L153.725,84.245Z" style="fill:rgb(83,106,222);fill-rule:nonzero;"/>
            </g>
        </g>
    </g>
</svg>
