<?xml version="1.0" encoding="UTF-8" standalone="no"?><!DOCTYPE svg PUBLIC "-//W3C//DTD SVG 1.1//EN" "http://www.w3.org/Graphics/SVG/1.1/DTD/svg11.dtd"><svg width="100%" height="100%" viewBox="0 0 100 100" version="1.1" xmlns="http://www.w3.org/2000/svg" xmlns:xlink="http://www.w3.org/1999/xlink" xml:space="preserve" xmlns:serif="http://www.serif.com/" style="fill-rule:evenodd;clip-rule:evenodd;stroke-linejoin:round;stroke-miterlimit:2;"><path d="M55.875,50l26.25,-26.208c0.784,-0.785 1.225,-1.85 1.225,-2.959c0,-2.295 -1.888,-4.183 -4.183,-4.183c-1.109,-0 -2.174,0.441 -2.959,1.225l-26.208,26.25l-26.208,-26.25c-0.785,-0.784 -1.85,-1.225 -2.959,-1.225c-2.295,-0 -4.183,1.888 -4.183,4.183c-0,1.109 0.441,2.174 1.225,2.959l26.25,26.208l-26.25,26.208c-0.788,0.782 -1.232,1.848 -1.232,2.959c-0,1.11 0.444,2.176 1.232,2.958c0.782,0.788 1.848,1.232 2.958,1.232c1.111,0 2.177,-0.444 2.959,-1.232l26.208,-26.25l26.208,26.25c0.782,0.788 1.848,1.232 2.959,1.232c1.11,0 2.176,-0.444 2.958,-1.232c0.788,-0.782 1.232,-1.848 1.232,-2.958c0,-1.111 -0.444,-2.177 -1.232,-2.959l-26.25,-26.208Z" style="fill:#536ade;fill-rule:nonzero;"/></svg>