<?xml version="1.0" encoding="UTF-8"?>
<!DOCTYPE svg  PUBLIC '-//W3C//DTD SVG 1.1//EN'  'http://www.w3.org/Graphics/SVG/1.1/DTD/svg11.dtd'>
<svg clip-rule="evenodd" fill-rule="evenodd" stroke-linejoin="round" stroke-miterlimit="2" version="1.1" viewBox="0 0 100 100" xml:space="preserve" xmlns="http://www.w3.org/2000/svg"><g fill="#e6e8f4" fill-rule="nonzero"><path d="m46.667 69.167c1.666 2.083 5 2.083 6.666-0l25-26.25c2.084-2.084 0-5.417-3.333-5.417h-16.667s0.834-19.167 0-29.167c-0.416-4.583-3.75-8.333-8.333-8.333s-7.917 3.75-8.333 8.333c-0.834 9.584-0 29.167-0 29.167h-16.667c-3.333 0-5.417 3.333-3.333 5.833l25 25.834z"/><path d="m79.167 79.167h-58.334c-4.583-0-8.333 3.75-8.333 8.333 0 2.5 1.667 4.167 4.167 4.167h66.666c2.5-0 4.167-1.667 4.167-4.167 0-4.583-3.75-8.333-8.333-8.333z"/></g></svg>
