<?xml version="1.0" encoding="UTF-8"?>
<!DOCTYPE svg  PUBLIC '-//W3C//DTD SVG 1.1//EN'  'http://www.w3.org/Graphics/SVG/1.1/DTD/svg11.dtd'>
<svg clip-rule="evenodd" fill-rule="evenodd" stroke-linejoin="round" stroke-miterlimit="2" version="1.1" viewBox="0 0 75 50" xml:space="preserve" xmlns="http://www.w3.org/2000/svg"><path d="m4.167 50h66.666c2.296 0 4.167-1.871 4.167-4.167s-1.871-4.166-4.167-4.166h-66.666c-2.296-0-4.167 1.87-4.167 4.166s1.871 4.167 4.167 4.167zm-0-20.833h66.666c2.296-0 4.167-1.871 4.167-4.167s-1.871-4.167-4.167-4.167h-66.666c-2.296 0-4.167 1.871-4.167 4.167s1.871 4.167 4.167 4.167zm-4.167-25c-0 2.296 1.871 4.166 4.167 4.166h66.666c2.296 0 4.167-1.87 4.167-4.166s-1.871-4.167-4.167-4.167h-66.666c-2.296-0-4.167 1.871-4.167 4.167z" fill="#536ade" fill-rule="nonzero"/></svg>
