<?xml version="1.0" encoding="UTF-8" standalone="no"?><!DOCTYPE svg PUBLIC "-//W3C//DTD SVG 1.1//EN" "http://www.w3.org/Graphics/SVG/1.1/DTD/svg11.dtd"><svg width="100%" height="100%" viewBox="0 0 134 134" version="1.1" xmlns="http://www.w3.org/2000/svg" xmlns:xlink="http://www.w3.org/1999/xlink" xml:space="preserve" xmlns:serif="http://www.serif.com/" style="fill-rule:evenodd;clip-rule:evenodd;stroke-linejoin:round;stroke-miterlimit:2;"><path d="M95.583,67.958c0.044,-0.346 0.044,-0.695 0,-1.041l0,-0.25c-0.002,-0.443 -0.086,-0.881 -0.25,-1.292c-0.173,-0.468 -0.442,-0.894 -0.791,-1.25l-20.834,-20.833c-0.784,-0.785 -1.849,-1.226 -2.958,-1.226c-2.295,0 -4.184,1.889 -4.184,4.184c0,1.109 0.441,2.174 1.226,2.958l13.833,13.292l-39.958,0c-2.286,0 -4.167,1.881 -4.167,4.167c0,2.285 1.881,4.166 4.167,4.166l39.958,0l-13.75,13.709c-0.788,0.782 -1.232,1.847 -1.232,2.958c-0,1.111 0.444,2.176 1.232,2.958c0.782,0.789 1.848,1.233 2.958,1.233c1.111,-0 2.177,-0.444 2.959,-1.233l20.833,-20.833c0.336,-0.366 0.604,-0.789 0.792,-1.25c0.08,-0.128 0.136,-0.269 0.166,-0.417Z" style="fill:#e6e8f4;fill-rule:nonzero;"/></svg>