<?xml version="1.0" encoding="UTF-8" standalone="no"?><!DOCTYPE svg PUBLIC "-//W3C//DTD SVG 1.1//EN" "http://www.w3.org/Graphics/SVG/1.1/DTD/svg11.dtd"><svg width="100%" height="100%" viewBox="0 0 125 125" version="1.1" xmlns="http://www.w3.org/2000/svg" xmlns:xlink="http://www.w3.org/1999/xlink" xml:space="preserve" xmlns:serif="http://www.serif.com/" style="fill-rule:evenodd;clip-rule:evenodd;stroke-linejoin:round;stroke-miterlimit:2;"><g><path d="M116.667,108.333l-108.334,0c-4.591,0 -8.333,-3.741 -8.333,-8.333l0,-91.667c0,-4.591 3.742,-8.333 8.333,-8.333l108.334,0c4.591,0 8.333,3.742 8.333,8.333l0,91.667c0,4.592 -3.742,8.333 -8.333,8.333Zm-108.334,-100l0,91.667l108.334,0l-0,-91.667l-108.334,0Zm70.834,116.667l-33.334,0c-2.295,0 -4.166,-1.871 -4.166,-4.167c-0,-2.296 1.871,-4.166 4.166,-4.166l33.334,-0c2.296,-0 4.166,1.87 4.166,4.166c0,2.296 -1.87,4.167 -4.166,4.167Z" style="fill:#e8e8e8;fill-rule:nonzero;"/><path d="M62.5,125c-2.296,0 -4.167,-1.871 -4.167,-4.167l0,-16.666c0,-2.296 1.871,-4.167 4.167,-4.167c2.296,0 4.167,1.871 4.167,4.167l-0,16.666c-0,2.296 -1.871,4.167 -4.167,4.167Zm-8.838,-40.154c-1.691,-0 -3.208,-1.008 -3.858,-2.571c-0.633,-1.546 -0.275,-3.354 0.913,-4.542c3.254,-3.254 3.254,-8.529 -0,-11.783c-3.255,-3.25 -8.529,-3.25 -11.784,0c-1.629,1.629 -4.266,1.629 -5.891,0c-1.63,-1.625 -1.63,-4.262 -0,-5.892c6.508,-6.496 17.054,-6.496 23.566,0c6.496,6.513 6.496,17.059 0,23.567c-0.783,0.783 -1.837,1.221 -2.946,1.221Z" style="fill:#e8e8e8;fill-rule:nonzero;"/><path d="M53.662,67.171c-1.691,-0 -3.208,-1.009 -3.858,-2.571c-0.633,-1.563 -0.275,-3.354 0.913,-4.542l26.512,-26.512c1.629,-1.629 4.267,-1.629 5.892,-0c1.629,1.625 1.629,4.262 -0,5.892l-26.513,26.512c-0.783,0.783 -1.837,1.221 -2.946,1.221Z" style="fill:#e8e8e8;fill-rule:nonzero;"/></g></svg>