<?xml version="1.0" encoding="UTF-8" standalone="no"?><!DOCTYPE svg PUBLIC "-//W3C//DTD SVG 1.1//EN" "http://www.w3.org/Graphics/SVG/1.1/DTD/svg11.dtd"><svg width="100%" height="100%" viewBox="0 0 100 100" version="1.1" xmlns="http://www.w3.org/2000/svg" xmlns:xlink="http://www.w3.org/1999/xlink" xml:space="preserve" xmlns:serif="http://www.serif.com/" style="fill-rule:evenodd;clip-rule:evenodd;stroke-linejoin:round;stroke-miterlimit:2;"><g><path d="M50,100.017c-27.571,-0 -50,-22.446 -50,-50c0,-27.571 22.429,-50 50,-50c27.571,-0 50,22.429 50,50c0,27.554 -22.429,50 -50,50Zm0,-95.834c-25.275,0 -45.833,20.559 -45.833,45.834c-0,25.258 20.558,45.833 45.833,45.833c25.275,0 45.833,-20.575 45.833,-45.833c0,-25.275 -20.558,-45.834 -45.833,-45.834Z" style="fill:#e8e8e8;fill-rule:nonzero;"/><path d="M49.904,30.225l-2.85,-0c-3.483,0.017 -8.758,0.033 -12.287,-1.154c-1.092,-0.358 -1.696,-1.55 -1.321,-2.638c0.358,-1.091 1.533,-1.679 2.621,-1.32c2.9,0.962 7.958,0.945 10.97,0.945l1.759,0c3.029,0 8.071,0.017 10.954,-0.945c0.717,-0.259 1.513,-0.13 2.1,0.375c0.567,0.504 0.829,1.27 0.667,2.02c-0.163,0.746 -0.717,1.35 -1.45,1.563c-3.171,1.054 -7.73,1.154 -11.163,1.154Z" style="fill:#e8e8e8;fill-rule:nonzero;"/><path d="M64.583,95.85c-0.879,-0.017 -1.658,-0.571 -1.97,-1.4l-22.917,-64.583c-0.342,-1.075 0.246,-2.213 1.304,-2.588c1.058,-0.375 2.213,0.146 2.637,1.204l22.917,64.584c0.209,0.633 0.113,1.333 -0.279,1.887c-0.375,0.554 -1.008,0.879 -1.692,0.896Zm8.334,-12.5c-0.913,-0.017 -1.709,-0.604 -1.988,-1.467l-16.667,-52.083c-0.258,-0.717 -0.095,-1.513 0.409,-2.083c0.504,-0.567 1.287,-0.813 2.016,-0.65c0.75,0.179 1.338,0.75 1.551,1.483l16.666,52.083c0.192,0.634 0.079,1.317 -0.312,1.854c-0.388,0.538 -1.009,0.846 -1.675,0.863Zm-56.346,-53.125l-1.988,-0c-4.62,-0 -6.966,-1.154 -7.208,-1.288c-0.962,-0.566 -1.304,-1.77 -0.783,-2.766c0.504,-0.975 1.687,-1.384 2.7,-0.925c-0,-0 1.729,0.812 5.291,0.812l0.879,0c3.03,0.034 8.071,0.017 10.971,-0.945c1.088,-0.359 2.263,0.229 2.621,1.32c0.371,1.088 -0.212,2.28 -1.321,2.638c-3.171,1.054 -7.729,1.154 -11.162,1.154Z" style="fill:#e8e8e8;fill-rule:nonzero;"/><path d="M31.25,95.85c-0.879,-0.017 -1.658,-0.571 -1.971,-1.4l-22.917,-64.583c-0.345,-1.075 0.246,-2.213 1.305,-2.588c1.058,-0.375 2.212,0.146 2.637,1.204l22.917,64.584c0.208,0.633 0.112,1.333 -0.279,1.887c-0.375,0.554 -1.009,0.879 -1.692,0.896Zm8.333,-12.5c-0.912,-0.017 -1.708,-0.604 -1.987,-1.467l-16.667,-52.083c-0.258,-0.717 -0.096,-1.513 0.408,-2.083c0.505,-0.567 1.288,-0.813 2.017,-0.65c0.75,0.179 1.338,0.75 1.55,1.483l16.667,52.083c0.191,0.634 0.079,1.317 -0.313,1.854c-0.387,0.538 -1.008,0.846 -1.675,0.863Zm33.238,8.95l-3.975,-1.25c-0,-0 7.521,-23.588 12.404,-38.95c0,-0.212 0.033,-0.408 0.096,-0.604c1.533,-5.175 -2.588,-12.159 -5.892,-17.788c-2.471,-4.216 -4.621,-7.845 -4.621,-10.775c0,-9.066 5.225,-10.416 8.334,-10.416c4.2,-0 7.616,2.475 10.17,7.358c2.655,5.042 1.971,14.242 -1.933,26.592c-4.346,13.72 -14.583,45.833 -14.583,45.833Zm6.346,-75.617c-1.467,0 -4.167,0 -4.167,6.25c-0,1.792 2.05,5.288 4.054,8.675c1.871,3.175 3.971,6.754 5.338,10.417c3.725,-13.2 2.162,-18.492 1.271,-20.217c-2.413,-4.604 -4.867,-5.125 -6.496,-5.125Z" style="fill:#e8e8e8;fill-rule:nonzero;"/><path d="M35.417,95.85c-0.667,-0.017 -1.304,-0.342 -1.692,-0.896c-0.392,-0.537 -0.487,-1.254 -0.279,-1.887l14.583,-41.667c0.375,-1.075 1.579,-1.658 2.654,-1.271c1.092,0.375 1.659,1.563 1.288,2.654l-14.584,41.667c-0.295,0.829 -1.091,1.4 -1.97,1.4Z" style="fill:#e8e8e8;fill-rule:nonzero;"/></g></svg>